<svg viewBox="0 0 56 56" xmlns="http://www.w3.org/2000/svg">
	<path d="M37.633 10.18C34.063 7.445 29.788 6 25.271 6c-5.415 0-10.506 2.097-14.335 5.904C7.11 15.71 5 20.772 5 26.156s2.109 10.446 5.937 14.253A20.178 20.178 0 0 0 24.33 46.29v2.834h-7.072a.94.94 0 0 0-.943.938.94.94 0 0 0 .943.937h16.029a.94.94 0 0 0 .943-.938.94.94 0 0 0-.943-.937h-7.072v-2.834a20.404 20.404 0 0 0 8.452-2.27.935.935 0 0 0 .398-1.265.946.946 0 0 0-1.273-.395 18.512 18.512 0 0 1-8.52 2.077c-10.137 0-18.385-8.202-18.385-18.282S15.134 7.875 25.272 7.875c4.097 0 7.973 1.31 11.21 3.79a.946.946 0 0 0 1.322-.17.934.934 0 0 0-.172-1.315Zm-15.358 2.026c-3.878.646-7.27 2.74-9.548 5.895-2.279 3.156-3.173 6.997-2.517 10.815.655 3.818 2.782 7.156 5.988 9.4a14.774 14.774 0 0 0 8.5 2.684c.824 0 1.655-.068 2.485-.206a14.736 14.736 0 0 0 5.85-2.32.91.91 0 0 0 .245-1.276.942.942 0 0 0-1.297-.24 12.866 12.866 0 0 1-5.109 2.024 12.933 12.933 0 0 1-9.593-2.164c-2.8-1.959-4.656-4.874-5.229-8.208a12.424 12.424 0 0 1 2.198-9.444c1.99-2.756 4.951-4.584 8.338-5.148 3.945-.657 7.9.497 10.85 3.165.379.344.97.32 1.318-.055a.909.909 0 0 0-.056-1.298c-3.378-3.054-7.906-4.375-12.423-3.624Zm8.203 8.055a.892.892 0 0 1 1.26 1.26L21.523 31.74a.889.889 0 0 1-1.26 0 .892.892 0 0 1 0-1.26L30.477 20.26Zm-5.195 12.087.065-.065a.968.968 0 0 1 1.369 1.37l-.065.064a.965.965 0 0 1-1.369 0 .968.968 0 0 1 0-1.37Zm-2.502-11.129a.748.748 0 0 1 0 1.058l-2.504 2.504a.746.746 0 0 1-1.058 0 .748.748 0 0 1 0-1.058l2.504-2.504a.748.748 0 0 1 1.058 0Zm27.296 2.593v2.127c.551.325.923.93.923 1.623v20.625C51 49.739 49.758 51 48.23 51h-6.46C40.241 51 39 49.738 39 48.187V27.564c0-.693.372-1.3.923-1.624v-2.127c0-.692.372-1.298.923-1.623V8.837C40.846 7.273 42.1 6 43.64 6c.853 0 1.648.388 2.18 1.065l2.727 3.46c.391.498.607 1.122.607 1.758v9.906c.551.325.923.931.923 1.623ZM43.64 7.876a.956.956 0 0 0-.948.962v13.1h4.616v-9.654a.95.95 0 0 0-.203-.586l-2.726-3.46a.937.937 0 0 0-.74-.362Zm4.59 15.938h-6.46v1.875h6.46v-1.875Zm0 25.312c.51 0 .924-.42.924-.938V27.564h-8.308v20.625c0 .516.414.937.923.937h6.462Zm-23.685-29.39.19-.19a.905.905 0 0 0-1.28-1.28l-.19.19a.905.905 0 0 0 1.28 1.28Zm5.77 10.04a.768.768 0 0 1-1.09 0 .77.77 0 0 1 0-1.09l2.46-2.46a.77.77 0 0 1 1.09 1.09l-2.46 2.46Z"/>
</svg>
