<svg viewBox="0 0 56 56" xmlns="http://www.w3.org/2000/svg">
	<path d="M15.156 5a4.138 4.138 0 0 0-3.082 1.393A4.27 4.27 0 0 0 11.02 9.6H11v37.535C11 49.265 12.71 51 14.81 51H45V5H15.156ZM12.51 47.135v-34.47a3.722 3.722 0 0 0 2.267.768v36.03c-1.253-.017-2.267-1.054-2.267-2.328Zm30.978 2.332h-27.2V13.433h2.267v19.321a1.135 1.135 0 0 0 1.138 1.15c.012 0 .022-.004.033-.005.034 0 .067-.009.1-.013a1.073 1.073 0 0 0 .331-.093c.071-.033.136-.074.199-.122.027-.02.055-.038.08-.061.084-.076.16-.162.22-.266l3.187-5.388 3.186 5.39c.247.417.71.613 1.171.526.034-.006.067-.002.101-.01.497-.141.83-.586.83-1.108v-19.32h14.356v36.033ZM27.728 12.27l-.002.006-.104.21v.032l-.075.176.075.117v18.555l-3.778-6.389-3.777 6.389V12.848l1.222-2.481h7.377l-.938 1.903Zm1.872-.37 1.511-3.067H20.355l-1.51 3.067h-3.53c-1.43 0-2.656-1.057-2.79-2.407-.076-.765.162-1.5.67-2.071a2.63 2.63 0 0 1 1.96-.889H43.49V7.3H39.71a.76.76 0 0 0-.755.767.76.76 0 0 0 .755.766h3.778V9.6h-3.022a.76.76 0 0 0-.756.767.76.76 0 0 0 .756.766h3.022v.767H29.6Z"/>
</svg>
