<svg viewBox="0 0 56 56" xmlns="http://www.w3.org/2000/svg">
	<path d="M44.263 11.737A22.849 22.849 0 0 0 28 5a22.849 22.849 0 0 0-16.263 6.737A22.85 22.85 0 0 0 5 28c0 6.144 2.392 11.92 6.737 16.263A22.85 22.85 0 0 0 28 51c6.144 0 11.92-2.392 16.263-6.737A22.85 22.85 0 0 0 51 28c0-6.143-2.392-11.92-6.737-16.263ZM43.21 43.21A21.37 21.37 0 0 1 28 49.51a21.37 21.37 0 0 1-15.21-6.3A21.37 21.37 0 0 1 6.49 28a21.37 21.37 0 0 1 6.3-15.21A21.37 21.37 0 0 1 28 6.49a21.37 21.37 0 0 1 15.21 6.3A21.37 21.37 0 0 1 49.51 28a21.37 21.37 0 0 1-6.3 15.21Zm-3.202-21.455a.745.745 0 0 0-.371.986A12.666 12.666 0 0 1 40.767 28a12.8 12.8 0 0 1-6.458 11.1V12.103a.745.745 0 0 0-1.25-.548c-.737.68-1.365 1.548-1.902 2.54a14.34 14.34 0 0 0-4.002-.327v-1.665a.745.745 0 1 0-1.49 0v1.831c-.575.095-1.139.225-1.689.387v-2.218a.745.745 0 1 0-1.49 0v2.749c-.584.246-1.148.53-1.689.848v-3.597a.745.745 0 1 0-1.49 0v4.604c-3.382 2.61-5.564 6.7-5.564 11.292 0 3.8 1.477 7.373 4.159 10.064a.743.743 0 0 0 1.053.002.745.745 0 0 0 .002-1.054A12.685 12.685 0 0 1 15.233 28c0-3.684 1.57-7.008 4.074-9.34v2.982c0 1.027.666 1.9 1.59 2.212v18.453a2.337 2.337 0 0 0 2.334 2.334 2.337 2.337 0 0 0 2.335-2.334v-.258a14.376 14.376 0 0 0 4.073.114v.144a2.337 2.337 0 0 0 2.335 2.334 2.337 2.337 0 0 0 2.335-2.334v-1.52A14.292 14.292 0 0 0 42.257 28c0-2.047-.425-4.023-1.262-5.874a.745.745 0 0 0-.987-.371Zm-14.343-6.307v3.859h-1.689v-3.423a12.67 12.67 0 0 1 1.69-.436Zm-3.179 1.039v2.82h-1.689v-1.842c.535-.367 1.1-.695 1.689-.978Zm1.59 25.82a.845.845 0 0 1-1.69 0V23.23a.745.745 0 0 0-.744-.745.845.845 0 0 1-.845-.845v-.844H25.665v.845a.845.845 0 0 1-.844.844.745.745 0 0 0-.745.745v19.076ZM28 40.767c-.82 0-1.636-.08-2.434-.233v-16.68a2.339 2.339 0 0 0 1.59-2.212v-6.38a12.864 12.864 0 0 1 3.343.217c-2.675 6.355-2.462 16.01-2.449 16.515.01.403.34.725.745.725h.844v7.943c-.542.07-1.09.105-1.639.105Zm4.819 1.54a.845.845 0 0 1-1.69 0V31.974a.745.745 0 0 0-.745-.745h-.85c0-1.292.053-4.155.447-7.31.537-4.294 1.507-7.6 2.838-9.722v28.11Zm3.441-24.042c.53.45 1.025.946 1.475 1.475a.744.744 0 1 0 1.136-.965 14.36 14.36 0 0 0-1.646-1.645.745.745 0 0 0-.965 1.135ZM19.117 44.038a18.403 18.403 0 0 1-6.995-6.872.745.745 0 0 0-1.29.746 19.893 19.893 0 0 0 7.562 7.43.742.742 0 0 0 1.013-.29c.2-.36.07-.814-.29-1.014Zm18.049-31.916a18.4 18.4 0 0 1 1.525.987.741.741 0 0 0 1.04-.17.745.745 0 0 0-.17-1.04c-.53-.381-1.084-.74-1.65-1.067a.745.745 0 0 0-.745 1.29Zm10.224 11.75a19.744 19.744 0 0 0-5.352-9.864.745.745 0 0 0-1.055 1.052 18.26 18.26 0 0 1 4.95 9.12.746.746 0 0 0 1.457-.309Z"/>
</svg>
