<svg viewBox="0 0 56 56" xmlns="http://www.w3.org/2000/svg">
	<path d="M25.494 17.704a.78.78 0 0 0-.784.777v.27a.255.255 0 0 1-.175.243l-11.919 3.678a1.8 1.8 0 0 0-1.277 1.729V28.55a1.8 1.8 0 0 0 1.277 1.728.783.783 0 0 0 .98-.512.777.777 0 0 0-.515-.973.255.255 0 0 1-.175-.243v-.024c0-.111.072-.211.175-.243l3.22-.994 8.234 2.541a.255.255 0 0 1 .175.244v.023a.255.255 0 0 1-.175.244L12.616 34.02a1.8 1.8 0 0 0-1.277 1.728v4.15a1.8 1.8 0 0 0 1.277 1.729.783.783 0 0 0 .98-.512.777.777 0 0 0-.515-.973.255.255 0 0 1-.175-.244v-.023c0-.112.072-.212.175-.244l3.22-.993 8.234 2.54a.255.255 0 0 1 .175.244v.024a.255.255 0 0 1-.175.243l-11.919 3.679a1.8 1.8 0 0 0-1.277 1.728v4.127c0 .429.351.777.784.777a.78.78 0 0 0 .783-.778c0-.111.072-.211.175-.243L25 47.3a1.8 1.8 0 0 0 1.277-1.729V41.422A1.8 1.8 0 0 0 25 39.694l-6.06-1.87 6.06-1.87a1.8 1.8 0 0 0 1.277-1.73v-4.149A1.8 1.8 0 0 0 25 28.346l-6.06-1.87 6.06-1.87a1.8 1.8 0 0 0 1.277-1.729v-4.396a.78.78 0 0 0-.784-.777Zm-.96 28.112-11.628 3.589v-2.309c0-.111.072-.212.175-.243l11.63-3.59v2.309a.255.255 0 0 1-.176.244Zm0-11.348-8.378 2.586a.79.79 0 0 0-.192.06l-3.058.943v-2.309c0-.11.072-.211.175-.243l11.63-3.589v2.309a.255.255 0 0 1-.176.243Zm.176-11.59a.255.255 0 0 1-.175.243l-8.38 2.586a.788.788 0 0 0-.191.059l-3.058.944V24.4c0-.111.072-.212.175-.244l11.63-3.588v2.308ZM16.9 31.6a.783.783 0 0 0 .98-.512.776.776 0 0 0-.516-.973l-1.668-.515a.785.785 0 0 0-.98.512.777.777 0 0 0 .515.974l1.668.514Zm-.004 11.347a.788.788 0 0 0 .98-.512.777.777 0 0 0-.515-.973l-1.667-.514a.785.785 0 0 0-.98.511.777.777 0 0 0 .515.973l1.667.515Zm18.385-25.05a.783.783 0 0 0 .98-.512.777.777 0 0 0-.515-.973l-1.669-.515a.785.785 0 0 0-.98.512.777.777 0 0 0 .515.973l1.669.515Zm-.004 11.346a.783.783 0 0 0 .98-.512.777.777 0 0 0-.515-.973l-1.667-.514a.785.785 0 0 0-.98.511.777.777 0 0 0 .515.974l1.667.514Zm9.381 2.625v-4.15a1.8 1.8 0 0 0-1.277-1.729l-6.06-1.87 6.06-1.87a1.8 1.8 0 0 0 1.277-1.729v-4.15a1.8 1.8 0 0 0-1.277-1.728l-6.06-1.87 6.06-1.871a1.8 1.8 0 0 0 1.277-1.728V4.778A.78.78 0 0 0 43.875 4a.78.78 0 0 0-.784.778v.27a.255.255 0 0 1-.175.243L30.998 8.969a1.8 1.8 0 0 0-1.277 1.729V14.848a1.8 1.8 0 0 0 1.276 1.728.788.788 0 0 0 .981-.512.777.777 0 0 0-.515-.973.255.255 0 0 1-.176-.243v-.024c0-.112.072-.212.176-.244l3.22-.993 8.233 2.54a.255.255 0 0 1 .175.244v.024a.255.255 0 0 1-.175.243l-11.918 3.679a1.8 1.8 0 0 0-1.277 1.728v4.15a1.8 1.8 0 0 0 1.276 1.729.783.783 0 0 0 .98-.512.777.777 0 0 0-.514-.973.255.255 0 0 1-.176-.244v-.024c0-.111.072-.211.176-.243l3.22-.994 8.233 2.541a.255.255 0 0 1 .175.244v.023a.255.255 0 0 1-.175.244l-11.918 3.678a1.8 1.8 0 0 0-1.277 1.728v4.127c0 .43.35.777.783.777a.78.78 0 0 0 .783-.777c0-.112.072-.212.176-.244l11.918-3.678a1.8 1.8 0 0 0 1.277-1.728Zm-13.37-18.863v-2.309c0-.111.071-.211.175-.243L43.09 6.865v2.309a.255.255 0 0 1-.175.243l-8.379 2.586a.789.789 0 0 0-.192.06l-3.058.943Zm0 11.348v-2.31c0-.11.071-.21.175-.243l11.628-3.588v2.285l.001.011v.012a.254.254 0 0 1-.176.244l-8.379 2.585a.786.786 0 0 0-.192.06l-3.058.944Zm11.628 7.758-11.629 3.589v-2.308c0-.112.072-.212.176-.244L43.09 29.56v2.285l.001.012v.012a.255.255 0 0 1-.176.243ZM12.961 12.19c2.332 0 4.23 1.884 4.23 4.199 0 .43.35.777.783.777a.78.78 0 0 0 .783-.777c0-2.315 1.898-4.199 4.23-4.199a.78.78 0 0 0 .783-.777.78.78 0 0 0-.783-.778c-2.332 0-4.23-1.884-4.23-4.199a.78.78 0 0 0-.783-.777.78.78 0 0 0-.783.777c0 2.315-1.898 4.199-4.23 4.199a.78.78 0 0 0-.784.777c0 .43.351.778.784.778Zm5.013-2.868a5.818 5.818 0 0 0 2.105 2.09 5.818 5.818 0 0 0-2.105 2.09 5.819 5.819 0 0 0-2.106-2.09 5.819 5.819 0 0 0 2.106-2.09Zm25.065 33.659c-2.332 0-4.23-1.884-4.23-4.2a.78.78 0 0 0-.783-.777.78.78 0 0 0-.783.778c0 2.315-1.898 4.199-4.23 4.199a.78.78 0 0 0-.783.777c0 .43.35.778.783.778 2.332 0 4.23 1.883 4.23 4.198 0 .43.35.778.783.778a.78.78 0 0 0 .783-.778c0-2.315 1.898-4.198 4.23-4.198a.78.78 0 0 0 .783-.778.78.78 0 0 0-.783-.777Zm-5.013 2.867a5.818 5.818 0 0 0-2.106-2.09 5.818 5.818 0 0 0 2.106-2.09 5.819 5.819 0 0 0 2.106 2.09 5.819 5.819 0 0 0-2.106 2.09Zm9.19-7.844h-.887v-.88a.78.78 0 0 0-.783-.778.78.78 0 0 0-.784.777v.881h-.887a.78.78 0 0 0-.784.778c0 .43.351.777.784.777h.887v.882c0 .429.351.777.784.777a.78.78 0 0 0 .783-.777v-.882h.888a.78.78 0 0 0 .783-.777.78.78 0 0 0-.783-.778Zm-35.09-18.35a.78.78 0 0 0 .783-.777.78.78 0 0 0-.784-.778h-.887v-.88a.78.78 0 0 0-.784-.778.78.78 0 0 0-.783.777v.881h-.888a.78.78 0 0 0-.783.778c0 .43.35.777.783.777h.888v.882c0 .429.35.777.783.777a.78.78 0 0 0 .784-.777v-.882h.887Z"/>
</svg>
