<svg viewBox="0 0 56 56" xmlns="http://www.w3.org/2000/svg">
	<path d="M49.142 19.053a4.893 4.893 0 0 0-4.078-2.182h-.42l-6.999 11.665v-7.213c0-9-7.322-16.323-16.322-16.323S5 12.322 5 21.323V39.87c0 1.227.999 2.226 2.226 2.226h11.738a20.984 20.984 0 0 1-5.17 1.901 2.686 2.686 0 0 0-2.117 2.639c0 .58.193 1.156.541 1.62A6.885 6.885 0 0 0 17.701 51H30.07c1.74 0 3.355-.864 4.321-2.313a26.6 26.6 0 0 0 2.766-5.398l.456-1.218a25.08 25.08 0 0 1 1.706-3.63l1.533-2.686a.667.667 0 0 1 1.246.33V51h4.451v-6.54c0-2.01.2-4.031.595-6.007l.05-.254a30.623 30.623 0 0 1 2.64-7.689A11.108 11.108 0 0 0 51 25.564v-.375c0-2.191-.642-4.313-1.858-6.136Zm-27.82-12.57c8.183 0 14.84 6.657 14.84 14.84h-1.485c0-7.364-5.99-13.355-13.354-13.355-7.364 0-13.355 5.99-13.355 13.355H6.484c0-8.183 6.656-14.84 14.839-14.84Zm11.872 14.84H9.451c0-6.546 5.325-11.871 11.87-11.871 6.546 0 11.872 5.325 11.872 11.87Zm-26.71 1.483H36.16v5.357L25.774 30.76v-3.502h-8.903v3.502L6.484 28.163v-5.357Zm11.87 7.42v-1.484h5.936v1.484h-5.935Zm5.936 1.484v2.225c0 .41-.332.742-.742.742h-4.451a.742.742 0 0 1-.742-.742V31.71h5.935ZM7.226 40.613a.742.742 0 0 1-.742-.742v-10.18l10.387 2.597v1.648c0 1.227.999 2.225 2.226 2.225h4.451a2.229 2.229 0 0 0 2.226-2.226v-1.647l10.387-2.596v1.276h.026l-1.107 1.844a27.343 27.343 0 0 1-4.116 5.27 6.064 6.064 0 0 1-4.316 1.789 6.141 6.141 0 0 1-2.724-.641l-.474-.242-.782.65c-.433.36-.885.697-1.345 1.02v-.045H7.226Zm34.44-6.654c-.079-.009-.155-.024-.235-.024-.77 0-1.486.416-1.868 1.084l-1.534 2.686a26.512 26.512 0 0 0-1.806 3.845l-.456 1.218a25.13 25.13 0 0 1-.71 1.681l-.009-.014a18.684 18.684 0 0 1-9.921 2.855h-6.772v1.484h6.772c1.469 0 2.939-.162 4.373-.48a20.118 20.118 0 0 0 4.336-1.516c-.218.368-.443.73-.68 1.086a3.704 3.704 0 0 1-3.087 1.652H17.701A5.379 5.379 0 0 1 15 48.774h1.871V47.29h-3.506a1.219 1.219 0 0 1-.204-.653c0-.575.393-1.065.954-1.189a22.55 22.55 0 0 0 9.503-4.67l.043-.036a7.636 7.636 0 0 0 2.987.613 7.54 7.54 0 0 0 5.366-2.222 28.88 28.88 0 0 0 4.339-5.557L45.47 18.38a3.41 3.41 0 0 1 2.437 1.498 9.552 9.552 0 0 1 1.463 3.673 69.08 69.08 0 0 0-7.705 10.41Zm6.839-4.112a32.13 32.13 0 0 0-2.766 8.062l-.05.255a32.169 32.169 0 0 0-.624 6.296v5.056H43.58v-13.43c0-.566-.224-1.076-.581-1.46a67.636 67.636 0 0 1 6.51-8.973 9.628 9.628 0 0 1-1.005 4.194Z"/>
</svg>
