<svg width="56" height="56" viewBox="0 0 56 56" fill="none" xmlns="http://www.w3.org/2000/svg">
<path d="M12.1667 39H8.83333C8.37313 39 8 39.4478 8 40C8 40.5522 8.37313 41 8.83333 41H12.1667C12.6269 41 13 40.5522 13 40C13 39.4478 12.6269 39 12.1667 39Z" fill="#D6D6D6"/>
<path d="M14.7727 39H47.2273C47.654 39 48 39.4478 48 40C48 40.5522 47.654 41 47.2273 41H14.7727C14.346 41 14 40.5522 14 40C14 39.4478 14.346 39 14.7727 39Z" fill="#D6D6D6"/>
<path fill-rule="evenodd" clip-rule="evenodd" d="M49.4667 31.0769H50.2333C50.6567 31.0769 51 31.4213 51 31.8462V42.6154C51 43.0402 50.6567 43.3846 50.2333 43.3846H49.4667V47.2308C49.4667 47.6556 49.1234 48 48.7 48H45.6333C45.2099 48 44.8667 47.6556 44.8667 47.2308V43.3846H11.1333V47.2308C11.1333 47.6556 10.7901 48 10.3667 48H7.3C6.87661 48 6.53333 47.6556 6.53333 47.2308V43.3846H5.76667C5.34327 43.3846 5 43.0402 5 42.6154V31.8462C5 31.4213 5.34327 31.0769 5.76667 31.0769H6.53333V28.7692C6.53535 27.2417 7.438 25.8602 8.83333 25.2492V13.3846C8.83352 13.0788 9.01408 12.8023 9.29333 12.68C8.99424 12.199 8.83496 11.6438 8.83333 11.0769C8.83333 9.3776 10.2063 8 11.9 8C13.5937 8 14.9667 9.3776 14.9667 11.0769C14.9635 11.6187 14.8163 12.1497 14.5404 12.6154H41.4596C41.1837 12.1497 41.0365 11.6187 41.0333 11.0769C41.0333 9.3776 42.4063 8 44.1 8C45.7937 8 47.1667 9.3776 47.1667 11.0769C47.165 11.6438 47.0058 12.199 46.7067 12.68C46.9859 12.8023 47.1665 13.0788 47.1667 13.3846V25.2492C48.562 25.8602 49.4647 27.2417 49.4667 28.7692V31.0769ZM45.6331 11.0775C45.6331 10.2278 44.9466 9.53906 44.0997 9.53906C43.2529 9.53906 42.5664 10.2278 42.5664 11.0775C42.5664 11.9272 43.2529 12.616 44.0997 12.616C44.9466 12.616 45.6331 11.9272 45.6331 11.0775ZM11.8995 9.53906C12.7464 9.53906 13.4329 10.2278 13.4329 11.0775C13.4329 11.9272 12.7464 12.616 11.8995 12.616C11.0527 12.616 10.3662 11.9272 10.3662 11.0775C10.3662 10.2278 11.0527 9.53906 11.8995 9.53906ZM45.6329 14.1543H10.3662V24.9235H13.4528C12.9455 24.2617 12.669 23.4508 12.6662 22.6158V21.0774C12.6687 18.9543 14.3835 17.2337 16.4995 17.2312H22.6329C24.7489 17.2337 26.4637 18.9543 26.4662 21.0774V22.6158C26.4634 23.4508 26.187 24.2617 25.6796 24.9235H30.3195C29.8121 24.2617 29.5357 23.4508 29.5329 22.6158V21.0774C29.5354 18.9543 31.2502 17.2337 33.3662 17.2312H39.4995C41.6155 17.2337 43.3304 18.9543 43.3329 21.0774V22.6158C43.3301 23.4508 43.0536 24.2617 42.5463 24.9235H45.6329V14.1543ZM41.7997 21.0772V22.6157C41.7997 23.8902 40.77 24.9234 39.4997 24.9234H33.3664C32.0961 24.9234 31.0664 23.8902 31.0664 22.6157V21.0772C31.0664 19.8027 32.0961 18.7695 33.3664 18.7695H39.4997C40.77 18.7695 41.7997 19.8027 41.7997 21.0772ZM24.9335 22.6157V21.0772C24.9335 19.8027 23.9038 18.7695 22.6335 18.7695H16.5002C15.2299 18.7695 14.2002 19.8027 14.2002 21.0772V22.6157C14.2002 23.8902 15.2299 24.9234 16.5002 24.9234H22.6335C23.9038 24.9234 24.9335 23.8902 24.9335 22.6157ZM8.06641 28.7686C8.06641 27.4941 9.09614 26.4609 10.3664 26.4609H45.6331C46.9033 26.4609 47.9331 27.4941 47.9331 28.7686V31.0763H8.06641V28.7686ZM8.06641 46.4617H9.59974V43.3848H8.06641V46.4617ZM47.9337 46.4617H46.4004V43.3848H47.9337V46.4617ZM6.5332 41.846H49.4665V32.6152H6.5332V41.846Z" fill="#D6D6D6"/>
</svg>
