<svg viewBox="0 0 56 56" xmlns="http://www.w3.org/2000/svg">
	<path d="M15.784 9.362a.776.776 0 0 0 1.097.178.819.819 0 0 0 .173-1.124L14.869 5.33a.774.774 0 0 0-1.096-.179.819.819 0 0 0-.174 1.125l2.185 3.085Zm34.717 21.276-3.25-1.19c-.375-.138-.787.095-.91.522-.122.427.085.885.464 1.024l3.25 1.19c.074.027.15.04.224.04.304 0 .587-.217.686-.561.122-.428-.085-.886-.464-1.025Zm-3.696-13.144 3.25-1.19c.38-.136.787.097.91.523.122.427-.085.886-.464 1.024l-3.25 1.19a.634.634 0 0 1-.223.04c-.305 0-.588-.218-.687-.562-.122-.427.085-.886.464-1.025Zm-7.224-7.8a.774.774 0 0 0 .635-.332L42.4 6.278a.818.818 0 0 0-.174-1.125.772.772 0 0 0-1.096.179l-2.185 3.084a.818.818 0 0 0 .173 1.125c.14.103.301.153.462.153ZM5.944 32.184a.633.633 0 0 1-.223.04c-.304 0-.587-.217-.686-.562-.122-.427.085-.885.464-1.024l3.25-1.19c.38-.138.787.095.91.522.122.427-.085.885-.464 1.024l-3.25 1.19ZM5.5 17.852l3.25 1.19c.074.026.15.04.223.04.305 0 .588-.219.687-.563.122-.427-.085-.885-.464-1.024l-3.25-1.19c-.378-.137-.787.096-.91.522-.122.427.085.885.464 1.025Zm5.26 9.76c-.005-.01-.009-.021-.015-.031a.69.69 0 0 1-.094-.286l-.008-.036a.17.17 0 0 1-.01-.048v-3.466c0-.018.005-.035.01-.05.003-.013.007-.025.008-.038a.722.722 0 0 1 .03-.148.721.721 0 0 1 .066-.137.25.25 0 0 0 .015-.033c.007-.017.013-.033.024-.047l5.134-6.733a.074.074 0 0 1 .018-.015c.006-.004.012-.008.016-.013a.73.73 0 0 1 .151-.128l.03-.021a.352.352 0 0 1 .057-.037.71.71 0 0 1 .205-.056c.012-.002.024-.007.035-.01a.152.152 0 0 1 .045-.012l.008.001.007.002.009-.003.01-.002h23.34l.005.001a.02.02 0 0 0 .006.001l.004-.001a.08.08 0 0 1 .023.006c.007.002.014.005.021.005.092.008.18.028.258.065a.238.238 0 0 1 .042.028l.028.02a.722.722 0 0 1 .174.144c.004.005.009.008.014.012a.065.065 0 0 1 .016.013l4.774 6.253c.01.014.017.03.023.046l.016.034a.785.785 0 0 1 .066.136c.016.05.024.099.03.15a.232.232 0 0 0 .008.037.18.18 0 0 1 .01.05v4.428c0 .016-.005.031-.01.047l-.007.034a.698.698 0 0 1-.094.286.224.224 0 0 0-.014.032c-.005.014-.01.029-.02.041L28.76 50.694l-.001.001a.713.713 0 0 1-.148.149l-.005.005a.107.107 0 0 1-.019.011.711.711 0 0 1-.212.1.087.087 0 0 0-.02.01.083.083 0 0 1-.024.01.701.701 0 0 1-.146.018.035.035 0 0 1-.01.002l-.006-.001-.01.001a.713.713 0 0 1-.19-.025c-.008-.002-.015-.008-.023-.011-.021-.006-.04-.014-.06-.022a.062.062 0 0 0-.008-.004.062.062 0 0 1-.009-.005.063.063 0 0 0-.008-.005c-.023-.01-.042-.022-.062-.034l-.013-.007a.342.342 0 0 0-.02-.01.233.233 0 0 1-.034-.02.08.08 0 0 0-.013-.006.068.068 0 0 1-.017-.01c-.01-.008-.02-.02-.03-.031-.006-.008-.013-.017-.021-.024a.06.06 0 0 1-.007-.008l-.006-.006a.62.62 0 0 1-.046-.05c-.004-.006-.01-.01-.015-.014a.06.06 0 0 1-.017-.014L10.777 27.652a.163.163 0 0 1-.019-.04Zm11.224-1.576h-9.861v.933l14.465 19.86-4.584-19.427a.744.744 0 0 1-.02-.172v-1.194Zm11.5 0H23.471v1.106l4.728 20.04 5.282-20.05v-1.096ZM23.47 24.543h10.01v-.511l-5.276-5.877-4.734 5.782v.606ZM34.97 27.23a.765.765 0 0 1-.025.19l-5.059 19.202L43.88 27.448v-1.412h-8.91v1.194Zm0-2.687h8.908v-1.025l-4.056-5.313-4.852 5.812v.526Zm-5.118-6.785 4.354 4.849 4.05-4.85h-8.404Zm-11.639 0 4.447 4.816 3.945-4.816h-8.392Zm3.77 6.28-5.419-5.869L12.122 24v.545h9.86v-.505Z"/>
</svg>
