<svg viewBox="0 0 56 56" xmlns="http://www.w3.org/2000/svg">
	<path d="M49.309 14.04c-1.957 0-3.636.137-5.258-1.476l-2.098-2.088A5.08 5.08 0 0 0 38.37 9h-5.928a5.1 5.1 0 0 0-3.591 1.476l-.031.03-3.954 3.933a4.36 4.36 0 0 0-1.287 3.092v1.32c0 2.391 1.908 4.858 4.287 5.211.264.04.524.058.78.058v.336c-4.163 2.386-12.703 7.197-14.394 8.866-1.423 1.416-2.496 3.655-2.496 5.918 0 1.01.133 2.037.723 3.373L7.533 42.6A2.527 2.527 0 0 0 5 45.12a2.527 2.527 0 0 0 2.533 2.52h21.088c1.254 0 2.124-1.34 1.518-2.433a5.08 5.08 0 0 0-2.426-2.193c.58-1.146.918-2.095 2.373-2.095h1.938v5.041c0 .928.756 1.68 1.689 1.68h6.283c1.296 0 2.133-1.405 1.479-2.518a5.082 5.082 0 0 0-3.759-2.46l.376-2.988c2.03-1.24 3.526-3.3 3.938-5.684.575-3.336-.853-6.35-3.25-8.152V22.44h5.066c1.859 0 4.16-1.297 5.117-2.882.402-.667 2.041-3.088 2.037-3.844a1.686 1.686 0 0 0-1.691-1.674Zm-20.67 8.382c-2.066 0-3.371-1.74-3.371-3.529v-1.362c0-.698.268-1.382.792-1.904l3.954-3.932a3.458 3.458 0 0 1 2.01-.973v8.358a3.356 3.356 0 0 1-3.386 3.342ZM7.532 45.96a.843.843 0 0 1-.844-.84c0-.463.379-.84.84-.84l5.97.015c.625.817.727.956 1.685 1.665h-7.65Zm39.982-27.266c-.686 1.136-2.337 2.066-3.668 2.066h-4.308c-1.1 0-2.028-.704-2.378-1.68H35.4a4.194 4.194 0 0 0 1.69 2.563v5.031c2.433 1.83 3.812 3.913 3.274 7.032-.427 2.476-1.934 3.79-3.848 4.958l-.687 5.458c1.704.211 3.238.215 4.166 1.838h-6.283v-8.4h-1.69v1.68h-1.937c-.521 0-1.008.137-1.469.33.083-2.282-.747-4.58-2.445-6.27l-1.195 1.188c2.505 2.492 2.351 6.138.924 8.361l-.506.996c1.314.567 2.573.92 3.226 2.115h-8.425c-3.742-.003-6.698-3.001-6.742-6.63-.036-2.01.88-4.088 2.736-5.463 1.86-1.378 12.136-7.29 14.145-8.44 0-.457 0-1.181-.002-1.615 1.965-.694 3.38-2.54 3.38-4.732v-8.4h4.657c.896 0 1.755.354 2.389.984l2.098 2.088c1.203 1.196 2.784 1.863 4.472 1.938a2.36 2.36 0 0 0 1.145 1.414l-.96 1.59Z"/>
</svg>
