<svg viewBox="0 0 56 56" xmlns="http://www.w3.org/2000/svg">
	<path d="M50.878 24.634a17.445 17.445 0 0 1-2.252 6.745.895.895 0 0 1-.112.19c-3.072 5.127-8.683 8.568-15.082 8.568-1.022 0-2.024-.09-2.999-.258l-7.114 7.115a.895.895 0 0 1-1.27 0 .9.9 0 0 1 0-1.27l6.328-6.33a17.65 17.65 0 0 1-10.051-7.865.886.886 0 0 1-.102-.174 17.54 17.54 0 0 1-.822-1.6L8.53 38.627a.895.895 0 0 1-1.27 0 .899.899 0 0 1 0-1.271l9.437-9.438a17.43 17.43 0 0 1-.723-3.375l-.002-.023a17.495 17.495 0 0 1 4.198-13.463.927.927 0 0 1 .152-.171 17.645 17.645 0 0 1 6.433-4.567.901.901 0 0 1 .159-.065A17.477 17.477 0 0 1 33.431 5c2.063 0 4.044.359 5.885 1.015.05.013.098.03.144.051 2.597.952 4.908 2.5 6.767 4.478.061.05.115.109.16.173a17.5 17.5 0 0 1 4.493 13.894l-.003.023Zm-13.222 1.862 3.196 4.919 6.367-1.196a15.65 15.65 0 0 0 1.82-5.38l-4.593-4.717-1.05.236-4.04.907-1.7 5.23Zm-8.448 0-3.195 4.916-6.386-1.225a15.657 15.657 0 0 1-1.814-5.428l4.6-4.639 5.095 1.145 1.133 3.486.567 1.745Zm-8.043-7.67-.81-5.065a15.679 15.679 0 0 0-2.692 8.598l3.502-3.533Zm9.683 6.902-1.587-4.885 4.154-3.018 4.155 3.019-1.587 4.884h-5.135Zm14.833-6.914 3.52 3.615a15.686 15.686 0 0 0-2.897-8.964l-.623 5.35Zm-.965-7.252-.795 6.836-1.933.434-3.13.703-4.511-3.278v-4.864l4.876-3.495a15.828 15.828 0 0 1 5.493 3.664ZM33.394 9.865l3.686-2.641a15.743 15.743 0 0 0-3.648-.427 15.73 15.73 0 0 0-4.147.554l4.109 2.514Zm-6.29-1.742 5.413 3.312v4.822l-3.183 2.312-1.329.966-5.09-1.143-1.046-6.537a15.84 15.84 0 0 1 5.235-3.732Zm-1.24 25.09-4.848-.93a15.835 15.835 0 0 0 7.317 5.21l-2.47-4.28Zm4.9 4.9-3.274-5.676 3.192-4.912h5.499l3.192 4.912-3.274 5.676a15.81 15.81 0 0 1-5.334 0ZM41 33.215l-2.468 4.278a15.833 15.833 0 0 0 7.297-5.185l-4.83.907Zm-23.626 4.14L5.264 49.467a.899.899 0 1 0 1.27 1.27l12.111-12.11a.9.9 0 0 0-1.27-1.27Zm1.92 11.124a.905.905 0 0 1 .634-.263c.237 0 .469.096.636.263a.904.904 0 0 1 .263.636.904.904 0 0 1-.899.898.901.901 0 0 1-.898-.898c0-.237.096-.469.264-.636Z"/>
</svg>
