<svg viewBox="0 0 56 56" xmlns="http://www.w3.org/2000/svg">
	<path d="M48.7 28h-.767V11.846A3.844 3.844 0 0 0 44.1 8H11.9a3.844 3.844 0 0 0-3.833 3.846v11.539H7.3c-1.27 0-2.3 1.033-2.3 2.307v20A2.304 2.304 0 0 0 7.3 48h29.133a.768.768 0 0 0 .767-.77 3.844 3.844 0 0 0-3.833-3.845h-2.3v-4.616h9.2v6.923a2.304 2.304 0 0 0 2.3 2.308H48.7c1.27 0 2.3-1.033 2.3-2.308V30.308A2.304 2.304 0 0 0 48.7 28ZM21.867 45.692c0 .425-.344.77-.767.77H7.3a.768.768 0 0 1-.767-.77v-.769h15.334v.77Zm0-2.307H6.533V25.692c0-.425.344-.769.767-.769h13.8c.423 0 .767.345.767.77v17.692Zm11.5 1.538a2.305 2.305 0 0 1 2.169 1.538H23.259c.09-.246.138-.506.141-.769v-.769h9.967ZM23.4 43.385v-4.616h1.533v4.616H23.4Zm3.067 0v-4.616h3.066v4.616h-3.066Zm13.8-6.154H23.4v-4.616h16.867v4.616Zm0-6.923v.769H23.4v-5.385a2.287 2.287 0 0 0-.262-1.047.08.08 0 0 1 .018-.011c.007-.004.014-.008.02-.014l7.59-7.615a.771.771 0 0 0-.02-1.088.765.765 0 0 0-1.065 0l-7.59 7.615c-.01.011-.017.023-.024.036-.005.01-.01.02-.018.028a2.265 2.265 0 0 0-.949-.211H9.6V11.846a2.304 2.304 0 0 1 2.3-2.308h32.2c1.27 0 2.3 1.034 2.3 2.308V28h-3.833c-1.27 0-2.3 1.033-2.3 2.308Zm9.2 15.384c0 .425-.344.77-.767.77h-6.133a.768.768 0 0 1-.767-.77v-.769h7.667v.77Zm0-2.307H41.8V30.308c0-.425.343-.77.767-.77H48.7c.423 0 .767.345.767.77v13.077Zm-35.51-11.15a.855.855 0 0 0-1.176 0l-3.527 3.39a.778.778 0 0 0-.02 1.13.855.855 0 0 0 1.196 0l3.527-3.39c.072-.12.04-.29.004-.48-.039-.207-.082-.436-.004-.65Zm3.685-.01a.801.801 0 0 1 1.133 1.133l-3.398 3.398-.005.005-.014.014a.801.801 0 1 1-1.114-1.152l3.398-3.398ZM35.77 16.212a.756.756 0 0 0-1.05 0L27.23 23.7a.756.756 0 0 0 1.05 1.088l.006-.006.013-.013 7.488-7.487c.29-.3.282-.78-.019-1.07Zm10.827 18.02a.829.829 0 0 1 1.171 1.172l-2.343 2.343a.829.829 0 1 1-1.172-1.172l2.344-2.342ZM28.003 34h-.01A.999.999 0 0 0 27 35.005.999.999 0 0 0 29 35c0-.552-.447-1-.997-1Zm-1.17-23h3.334c.46 0 .833.448.833 1s-.373 1-.833 1h-3.334c-.46 0-.833-.448-.833-1s.373-1 .833-1Z"/>
</svg>
