<svg viewBox="0 0 56 56" xmlns="http://www.w3.org/2000/svg">
	<path d="M40.92 46.353h-.788a67.142 67.142 0 0 1-5.01-10.08h.193a.774.774 0 0 0 .773-.775V32.4a.774.774 0 0 0-.773-.775h-1.827a66.607 66.607 0 0 1-1.752-6.96h.662a.774.774 0 0 0 .774-.774V20.9a.774.774 0 0 0-.773-.774h-1.395a77.164 77.164 0 0 1-.606-8.173.771.771 0 0 0-.022-.168V8.873a.774.774 0 0 0-.774-.775h-1.935V5.775a.774.774 0 1 0-1.547 0v2.323h-1.935a.774.774 0 0 0-.774.775v2.913a.778.778 0 0 0-.022.168 77.219 77.219 0 0 1-.606 8.172h-1.48a.774.774 0 0 0-.774.775v2.99c0 .428.347.774.774.774h.748a66.601 66.601 0 0 1-1.752 6.96h-1.912a.774.774 0 0 0-.774.774v3.099c0 .427.347.774.774.774h.278a67.15 67.15 0 0 1-5.01 10.08h-.787a.774.774 0 0 0-.774.775v3.098c0 .428.347.775.774.775h8.947a.774.774 0 0 0 .774-.775v-3.098a.774.774 0 0 0-.773-.774h-.236c.134-3.935 2.51-7.08 5.41-7.08 2.901 0 5.276 3.145 5.41 7.08h-.428a.774.774 0 0 0-.774.774v3.098c0 .428.346.775.774.775h8.947a.774.774 0 0 0 .774-.775v-3.098a.774.774 0 0 0-.774-.774ZM24.958 9.647h3.869v1.55h-3.87v-1.55Zm-.043 3.098h3.955c.077 2.517.268 4.975.57 7.381h-5.096c.303-2.406.494-4.864.571-7.38Zm-2.84 8.93h9.549v1.441h-9.548v-1.44Zm1.553 2.99h6.529a68.249 68.249 0 0 0 1.708 6.96h-2.065v-.942a2.933 2.933 0 0 0-2.928-2.93h-.044a2.933 2.933 0 0 0-2.928 2.93v.942h-1.98a68.249 68.249 0 0 0 1.708-6.96Zm4.624 6.96h-2.805v-.942c0-.762.62-1.382 1.38-1.382h.044c.762 0 1.381.62 1.381 1.382v.942Zm-9.092 1.55H34.54v1.548H19.16v-1.549Zm1.88 16.276h-7.4V47.9H21.042v1.55Zm10.944-9.016c-1.319-1.748-3.093-2.71-4.995-2.71-1.902 0-3.676.962-4.995 2.71-1.207 1.6-1.898 3.69-1.964 5.918h-4.573a68.364 68.364 0 0 0 4.87-10.08h13.13a68.355 68.355 0 0 0 4.87 10.08H33.95c-.066-2.228-.757-4.318-1.964-5.918Zm8.16 9.016h-7.4V47.9H40.146v1.55ZM11.063 13.436a.773.773 0 0 0 1.095 0c.5-.5 1.164-.776 1.87-.776.707 0 1.372.276 1.871.776a.773.773 0 1 0 1.095-1.095 4.164 4.164 0 0 0-2.966-1.23 4.16 4.16 0 0 0-2.418.767 4.16 4.16 0 0 0-2.418-.767c-1.12 0-2.173.437-2.965 1.23a.775.775 0 0 0 1.094 1.095c.5-.5 1.164-.776 1.871-.776.707 0 1.371.275 1.871.776ZM14.32 18.6a.774.774 0 0 0 .547-.227c.5-.5 1.164-.775 1.87-.775.708 0 1.372.275 1.872.776a.773.773 0 1 0 1.094-1.096 4.164 4.164 0 0 0-2.965-1.23 4.16 4.16 0 0 0-2.418.768 4.161 4.161 0 0 0-2.419-.767c-1.12 0-2.173.436-2.965 1.23a.775.775 0 0 0 1.094 1.095c.5-.5 1.165-.776 1.871-.776.707 0 1.372.275 1.871.776a.774.774 0 0 0 .548.226Zm32.854 6.583a4.164 4.164 0 0 0-2.965-1.23c-.878 0-1.716.269-2.418.767a4.16 4.16 0 0 0-2.419-.767c-1.12 0-2.173.437-2.965 1.23a.775.775 0 0 0 1.095 1.095c.5-.5 1.164-.776 1.87-.776.707 0 1.372.276 1.871.776a.773.773 0 0 0 1.095 0c.5-.5 1.164-.776 1.87-.776.708 0 1.372.276 1.872.776a.773.773 0 1 0 1.094-1.095Z"/>
</svg>
